{"title":"Resurrection US S01E03 HDTV x264 AAC E-Subs [GWC].mp4","uid":9819744,"size":139331002,"categoryP":"video","categoryS":"tv_shows","magnet":"?xt=urn:btih:6bcbde3ffbccb9f0660f46ba68c52afd0165087e&amp;dn=Resurrection+US+S01E03+HDTV+x264+AAC+E-Subs+%5BGWC%5D.mp4&amp;tr=udp%3A%2F%2Ftracker.openbittorrent.com%3A80&amp;tr=udp%3A%2F%2Fopen.demonii.com%3A1337&amp;tr=udp%3A%2F%2Ftracker.coppersurfer.tk%3A6969&amp;tr=udp%3A%2F%2Fexodus.desync.com%3A6969","seeders":1,"leechers":0,"uploader":"canc232","files":1,"time":1395680083,"description":"Resurrection US S01E03 HDTV x264 AAC E-Subs [GWC]  \n\n\nSTORYLINE :\nThe lives of the people of Aurora are forever changed when their deceased loved ones return.\n\n\nSCREENS : &lt;a href=&quot;\nhttp://i.imgur.com/OzuDm7y.jpg&quot; rel=&quot;nofollow&quot; target=&quot;_NEW&quot;&gt;\nhttp://i.imgur.com/OzuDm7y.jpg&lt;/a&gt; &lt;a href=&quot;\nhttp://i.imgur.com/YovCCyB.jpg&quot; rel=&quot;nofollow&quot; target=&quot;_NEW&quot;&gt;\nhttp://i.imgur.com/YovCCyB.jpg&lt;/a&gt; &lt;a href=&quot;\nhttp://i.imgur.com/Rlhd9vn.jpg&quot; rel=&quot;nofollow&quot; target=&quot;_NEW&quot;&gt;\nhttp://i.imgur.com/Rlhd9vn.jpg&lt;/a&gt;\n\n\nMEDIA INFO :\nGeneral \nFormat : MPEG-4 \nFormat profile : Base Media \nFile size : 133 MiB \nDuration : 41mn 11s \nOverall bit rate mode : Variable \nOverall bit rate : 451 Kbps \n\nVideo \nFormat : AVC \nFormat profile : &lt;a class=&quot;__cf_email__&quot; href=&quot;/cdn-cgi/l/email-protection&quot; data-cfemail=&quot;cd85a4aaa58d81fee3fd&quot;&gt;[email&amp;#160;protected]&lt;/a&gt;&lt;script cf-hash='f9e31' type=&quot;text/javascript&quot;&gt;\n/* &lt;![CDATA[ */!function(){try{var t=&quot;currentScript&quot;in document?document.currentScript:function(){for(var t=document.getElementsByTagName(&quot;script&quot;),e=t.length;e--;)if(t[e].getAttribute(&quot;cf-hash&quot;))return t[e]}();if(t&amp;&amp;t.previousSibling){var e,r,n,i,c=t.previousSibling,a=c.getAttribute(&quot;data-cfemail&quot;);if(a){for(e=&quot;&quot;,r=parseInt(a.substr(0,2),16),n=2;a.length-n;n+=2)i=parseInt(a.substr(n,2),16)^r,e+=String.fromCharCode(i);e=document.createTextNode(e),c.parentNode.replaceChild(e,c)}}}catch(u){}}();/* ]]&gt; */&lt;/script&gt; \nFormat settings, CABAC : Yes \nFormat settings, ReFrames : 4 frames \nDuration : 41mn 11s \nBit rate : 388 Kbps \nMaximum bit rate : 3 160 Kbps \nWidth : 720 pixels \nHeight : 404 pixels \nDisplay aspect ratio : 16:9 \nFrame rate mode : Constant \nFrame rate : 23.976 fps \nStream size : 114 MiB (86%) \nTitle : Resurrection US S01E03 HDTV x264 AAC E-Subs [GWC] \nWriting library : x264 core\n\nAudio \nFormat : AAC \nFormat profile : HE-AAC / LC \nDuration : 41mn 11s \nBit rate mode : Variable \nChannel(s) : 2 channels \nSampling rate : 48.0 KHz / 24.0 KHz \nStream size : 17.6 MiB (13%) \nLanguage : English \n\nText \nID : 3 \nFormat : Timed Text \nTitle : English Subtitle by n17t01 \nLanguage : English","torrent":{"xt":"urn:btih:6bcbde3ffbccb9f0660f46ba68c52afd0165087e","amp;dn":"Resurrection+US+S01E03+HDTV+x264+AAC+E-Subs+%5BGWC%5D.mp4","amp;tr":["udp%3A%2F%2Ftracker.openbittorrent.com%3A80","udp%3A%2F%2Fopen.demonii.com%3A1337","udp%3A%2F%2Ftracker.coppersurfer.tk%3A6969","udp%3A%2F%2Fexodus.desync.com%3A6969"],"infoHash":"6bcbde3ffbccb9f0660f46ba68c52afd0165087e","infoHashBuffer":{"type":"Buffer","data":[107,203,222,63,251,204,185,240,102,15,70,186,104,197,42,253,1,101,8,126]},"announce":[],"urlList":[]}}